# xmcd
#
# Track frame offsets:
#	150
#	22174
#	39124
#	57564
#	72065
#	87069
#	96918
#	111264
#	120731
#	142667
#	169471
#	183368
#
# Disc length: 2752 seconds
#
# Revision: 1
# Processed by: cddbd v1.5.2PL0 Copyright (c) Steve Scherf et al.
# Submitted via: audiograbber 1.83.01
#
DISCID=9f0abe0c
DTITLE=Various Artist - 70s
DYEAR=1900
DGENRE=
TTITLE0=Back Up Against The Wall
TTITLE1=A Horse With No Name
TTITLE2=Garden Party
TTITLE3=Annie´s Other Song
TTITLE4=Rock Your Baby
TTITLE5=Sun Is Shining
TTITLE6=Save Your Kisses For Me
TTITLE7=shake a tail feather
TTITLE8=never gonna give you up
TTITLE9=I Am What I Am
TTITLE10=I´ll Never fall In Love Again
TTITLE11=Take Me Home Country Road
EXTD=
EXTT0=
EXTT1=
EXTT2=
EXTT3=
EXTT4=
EXTT5=
EXTT6=
EXTT7=
EXTT8=
EXTT9=
EXTT10=
EXTT11=
PLAYORDER=
